#!OML:ASF G:\JayActor3\Patient Classification 1\Patient 1\Session 5\male.ASF
:FULLY-SPECIFIED
:DEGREES
832
root 3.702 16.9317 -6.86366 366.857 -87.7265 -11.5391
lowerback 0.35496 -1.03134 0.339079
upperback 1.09861 -1.38607 0.488859
thorax 0.929299 -0.695106 0.303744
lowerneck -5.6097 -1.70786 1.26702
upperneck 2.22749 -2.41299 1.00508
head 1.63665 -1.17202 0.0254694
rclavicle 1.57599e-014 -5.36719e-015
rhumerus 5.37085 -15.4274 -25.0313
rradius 23.7361
rwrist 10.9703
rhand -9.38189 -11.968
rfingers 7.12502
rthumb 16.5788 -41.2798
lclavicle 1.57599e-014 -5.36719e-015
lhumerus 1.41657 -4.13798 20.2715
lradius 29.4672
lwrist 15.5132
lhand -14.8416 32.7787
lfingers 7.12502
lthumb 11.3175 62.4534
rfemur -0.934819 -0.808868 17.5694
rtibia 30.546
rfoot -30.3488 -19.6407
rtoes 10.9291
lfemur 7.98782 5.12549 -14.3121
ltibia 7.24562
lfoot -10.3575 15.0721
ltoes 3.67215
833
root 3.70359 16.9317 -6.86249 366.812 -87.7217 -11.4972
lowerback 0.360763 -1.02811 0.340594
upperback 1.0996 -1.38174 0.488241
thorax 0.926996 -0.692933 0.302389
lowerneck -5.60669 -1.70762 1.26812
upperneck 2.21882 -2.41278 1.00936
head 1.63336 -1.17192 0.0267104
rclavicle -9.42364e-015 2.78299e-015
rhumerus 5.36058 -15.4334 -25.0365
rradius 23.775
rwrist 10.8938
rhand -9.37318 -11.9703
rfingers 7.12502
rthumb 16.5872 -41.2814
lclavicle -9.42364e-015 2.78299e-015
lhumerus 1.4516 -4.13672 20.2712
lradius 29.4985
lwrist 15.4979
lhand -14.8322 32.7184
lfingers 7.12502
lthumb 11.3266 62.3926
rfemur -0.935536 -0.814367 17.5629
rtibia 30.5436
rfoot -30.3438 -19.6414
rtoes 10.9299
lfemur 7.97533 5.12106 -14.3175
ltibia 7.26066
lfoot -10.3592 15.0726
ltoes 3.66781
834
root 3.70518 16.9318 -6.86132 366.773 -87.717 -11.4606
lowerback 0.367089 -1.02491 0.342157
upperback 1.10041 -1.37745 0.487339
thorax 0.924198 -0.69078 0.300729
lowerneck -5.60305 -1.70777 1.26902
upperneck 2.21015 -2.41309 1.01428
head 1.62996 -1.17207 0.028173
rclavicle 7.28049e-015 -8.74653e-015
rhumerus 5.34867 -15.4396 -25.0434
rradius 23.8168
rwrist 10.8146
rhand -9.36446 -11.9722
rfingers 7.12502
rthumb 16.5956 -41.2826
lclavicle 7.28049e-015 -8.74653e-015
lhumerus 1.48656 -4.13343 20.2725
lradius 29.5314
lwrist 15.4796
lhand -14.821 32.6552
lfingers 7.12502
lthumb 11.3374 62.3288
rfemur -0.936228 -0.820408 17.5565
rtibia 30.5413
rfoot -30.3385 -19.6416
rtoes 10.9308
lfemur 7.96282 5.11664 -14.3228
ltibia 7.27567
lfoot -10.3605 15.0732
ltoes 3.66233
835
root 3.70678 16.9318 -6.86016 366.747 -87.7124 -11.4371
lowerback 0.373618 -1.02171 0.343686
upperback 1.10127 -1.37314 0.486203
thorax 0.921345 -0.688616 0.298851
lowerneck -5.59983 -1.70816 1.27024
upperneck 2.20213 -2.41377 1.01963
head 1.62685 -1.17238 0.029701
rclavicle 1.52816e-014 -9.54166e-015
rhumerus 5.33521 -15.4463 -25.0523
rradius 23.8616
rwrist 10.7322
rhand -9.35728 -11.9744
rfingers 7.12502
rthumb 16.6025 -41.2842
lclavicle 1.52816e-014 -9.54166e-015
lhumerus 1.52184 -4.12858 20.2752
lradius 29.5661
lwrist 15.4611
lhand -14.8109 32.5901
lfingers 7.12502
lthumb 11.3472 62.2631
rfemur -0.93722 -0.825481 17.5509
rtibia 30.5388
rfoot -30.3338 -19.6419
rtoes 10.9339
lfemur 7.95005 5.11245 -14.3275
ltibia 7.29071
lfoot -10.3618 15.0737
ltoes 3.65775
836
root 3.70838 16.9319 -6.85903 366.721 -87.7079 -11.4142
lowerback 0.380486 -1.01842 0.344785
upperback 1.10222 -1.36873 0.484663
thorax 0.918394 -0.686399 0.296806
lowerneck -5.59667 -1.70893 1.27105
upperneck 2.19432 -2.415 1.02628
head 1.62385 -1.17294 0.03168
rclavicle -1.21631e-014 9.93923e-017
rhumerus 5.31976 -15.4546 -25.0634
rradius 23.9095
rwrist 10.6486
rhand -9.3514 -11.9757
rfingers 7.12502
rthumb 16.6082 -41.2851
lclavicle -1.21631e-014 9.93923e-017
lhumerus 1.55743 -4.12173 20.2794
lradius 29.603
lwrist 15.4425
lhand -14.802 32.5251
lfingers 7.12502
lthumb 11.3557 62.1976
rfemur -0.938239 -0.830418 17.5453
rtibia 30.5363
rfoot -30.3287 -19.6426
rtoes 10.9361
lfemur 7.93715 5.10839 -14.3321
ltibia 7.30598
lfoot -10.3631 15.0742
ltoes 3.65242
837
root 3.71 16.932 -6.85791 366.694 -87.7036 -11.3892
lowerback 0.387663 -1.01511 0.345124
upperback 1.10316 -1.36426 0.482868
thorax 0.915264 -0.684162 0.294931
lowerneck -5.59326 -1.71013 1.27208
upperneck 2.18637 -2.41681 1.03304
head 1.62075 -1.17379 0.0336396
rclavicle 7.68427e-015 -4.17448e-015
rhumerus 5.30219 -15.4635 -25.0761
rradius 23.961
rwrist 10.5628
rhand -9.34737 -11.976
rfingers 7.12502
rthumb 16.612 -41.285
lclavicle 7.68427e-015 -4.17448e-015
lhumerus 1.59326 -4.11187 20.2853
lradius 29.6414
lwrist 15.4229
lhand -14.7924 32.4549
lfingers 7.12502
lthumb 11.365 62.127
rfemur -0.939526 -0.835135 17.5399
rtibia 30.5337
rfoot -30.3239 -19.6428
rtoes 10.9397
lfemur 7.92403 5.10444 -14.3369
ltibia 7.3212
lfoot -10.3645 15.0745
ltoes 3.6485
838
root 3.71163 16.9321 -6.85684 366.684 -87.6993 -11.381
lowerback 0.395398 -1.01172 0.345415
upperback 1.10389 -1.35969 0.480963
thorax 0.911618 -0.681874 0.292983
lowerneck -5.59046 -1.71169 1.27262
upperneck 2.17977 -2.41913 1.04117
head 1.61822 -1.17486 0.0360818
rclavicle -1.59276e-014 6.85807e-015
rhumerus 5.28201 -15.4729 -25.0906
rradius 24.0164
rwrist 10.4752
rhand -9.34478 -11.9761
rfingers 7.12502
rthumb 16.6145 -41.285
lclavicle -1.59276e-014 6.85807e-015
lhumerus 1.62935 -4.0984 20.2932
lradius 29.6811
lwrist 15.4013
lhand -14.7828 32.3799
lfingers 7.12502
lthumb 11.3743 62.0514
rfemur -0.941325 -0.839183 17.5354
rtibia 30.531
rfoot -30.319 -19.6437
rtoes 10.9427
lfemur 7.91038 5.10071 -14.3409
ltibia 7.3366
lfoot -10.3659 15.0749
ltoes 3.64537
839
root 3.71328 16.9322 -6.8558 366.687 -87.6951 -11.3856
lowerback 0.403251 -1.00831 0.345445
upperback 1.10471 -1.35509 0.478954
thorax 0.907985 -0.679575 0.291076
lowerneck -5.58751 -1.71353 1.27346
upperneck 2.17336 -2.42187 1.04941
head 1.61572 -1.17613 0.0384934
rclavicle 7.74018e-015 -6.85807e-015
rhumerus 5.25961 -15.4832 -25.1071
rradius 24.0753
rwrist 10.3865
rhand -9.34412 -11.9753
rfingers 7.12502
rthumb 16.6152 -41.2841
lclavicle 7.74018e-015 -6.85807e-015
lhumerus 1.66559 -4.08114 20.303
lradius 29.7226
lwrist 15.3787
lhand -14.7736 32.3037
lfingers 7.12502
lthumb 11.3831 61.9747
rfemur -0.943503 -0.842639 17.5319
rtibia 30.5282
rfoot -30.3143 -19.6451
rtoes 10.9462
lfemur 7.89628 5.09707 -14.3443
ltibia 7.35217
lfoot -10.3674 15.0752
ltoes 3.64384
840
root 3.71494 16.9324 -6.8548 366.707 -87.6911 -11.4069
lowerback 0.411513 -1.00485 0.345351
upperback 1.10542 -1.35041 0.476907
thorax 0.904021 -0.677234 0.289208
lowerneck -5.58466 -1.7157 1.27405
upperneck 2.16764 -2.42506 1.05832
head 1.61348 -1.17761 0.0411369
rclavicle -8.14396e-015 4.77083e-015
rhumerus 5.23444 -15.4938 -25.1251
rradius 24.1381
rwrist 10.2968
rhand -9.34431 -11.9733
rfingers 7.12502
rthumb 16.615 -41.2821
lclavicle -8.14396e-015 4.77083e-015
lhumerus 1.70171 -4.0613 20.3144
lradius 29.7661
lwrist 15.356
lhand -14.7648 32.2242
lfingers 7.12502
lthumb 11.3916 61.8948
rfemur -0.946083 -0.845798 17.5293
rtibia 30.5254
rfoot -30.3088 -19.6474
rtoes 10.9483
lfemur 7.88181 5.09365 -14.347
ltibia 7.36797
lfoot -10.3691 15.0755
ltoes 3.64218
